<svg xmlns="http://www.w3.org/2000/svg" width="168" height="64" viewBox="0 0 168 64">
  <g fill="#ef5388">
    <path d="M125.86.038a3.95 3.95 0 0 1 2.62 6.342 3.786 3.786 0 0 1-2.339 1.442 3.931 3.931 0 0 1-4.41-2.343 3.423 3.423 0 0 1-.284-1.244 3.974 3.974 0 0 1 .21-1.6 3.881 3.881 0 0 1 2.934-2.537 3.547 3.547 0 0 1 .656-.09 2.865 2.865 0 0 1 .613.03Zm-.495 1.257a2.629 2.629 0 0 0-2.674 2.584v.074a2.674 2.674 0 0 0 2.667 2.681h.033a2.7 2.7 0 0 0 2.658-2.691 2.666 2.666 0 0 0-2.684-2.648Z" data-name="Path 2348"/>
    <path d="M142.448 39.058h-5a3.388 3.388 0 0 1-1.026-.14 2.837 2.837 0 0 1-1.991-2.683q-.011-1.249 0-2.5a2.82 2.82 0 0 1 2.393-2.774 4.285 4.285 0 0 1 .551-.048h10.164a2.87 2.87 0 0 1 2.127.856 2.748 2.748 0 0 1 .821 1.931 51.05 51.05 0 0 1 0 2.566 2.813 2.813 0 0 1-2.36 2.734 4.949 4.949 0 0 1-.724.055c-1.647.008-3.302.003-4.955.003Zm.022-1.3h4.858a4.072 4.072 0 0 0 .553-.035 1.485 1.485 0 0 0 1.105-.755 1.708 1.708 0 0 0 .221-.9v-2.29a1.587 1.587 0 0 0-1.544-1.569c-.081-.005-.162 0-.243 0h-9.924c-.093 0-.185 0-.277.007a1.574 1.574 0 0 0-1.472 1.337 2.033 2.033 0 0 0-.022.346v2.285a1.569 1.569 0 0 0 1.438 1.555c.15.013.3.016.451.016h4.859Z" data-name="Path 2354"/>
    <path d="M124.901 39.062h-5.03a3.444 3.444 0 0 1-.959-.125 2.842 2.842 0 0 1-2.043-2.712q.007-1.232 0-2.464a2.827 2.827 0 0 1 2.373-2.789 3.943 3.943 0 0 1 .552-.051h10.234a2.829 2.829 0 0 1 1.519.414 2.768 2.768 0 0 1 1.377 2.352 32.67 32.67 0 0 1 0 2.6 2.8 2.8 0 0 1-2.409 2.724 5.931 5.931 0 0 1-.691.048q-2.46.006-4.923.003Zm.007-6.852h-5.205a1.622 1.622 0 0 0-.986.378 1.555 1.555 0 0 0-.557 1.222v1.908c0 .174-.005.347 0 .52a1.551 1.551 0 0 0 1.349 1.488 2.991 2.991 0 0 0 .415.03h9.959a2.362 2.362 0 0 0 .483-.043 1.5 1.5 0 0 0 1.219-1.182 2.4 2.4 0 0 0 .054-.55c.006-.661 0-1.318 0-1.978 0-.093 0-.185-.006-.277a1.587 1.587 0 0 0-1.562-1.515c-.115-.006-.231 0-.347 0Z" data-name="Path 2355"/>
    <path d="M160.003 39.059h-5a3.305 3.305 0 0 1-1.059-.155 2.843 2.843 0 0 1-1.944-2.65 85.553 85.553 0 0 1 0-2.533 2.808 2.808 0 0 1 2.38-2.753 4.66 4.66 0 0 1 .586-.051h10.135a2.9 2.9 0 0 1 2.132.851 2.8 2.8 0 0 1 .661 1.048 1.488 1.488 0 0 1 .1.507v3.3a1.52 1.52 0 0 1-.116.574 2.776 2.776 0 0 1-2.193 1.811 3.959 3.959 0 0 1-.691.054q-2.492.003-4.991-.003Zm.032-6.852h-5a2.058 2.058 0 0 0-.683.1 1.562 1.562 0 0 0-1.063 1.479c-.011.462 0 .925 0 1.388 0 .347-.008.694 0 1.041a1.558 1.558 0 0 0 1.392 1.524 2.974 2.974 0 0 0 .381.022h9.924a3.132 3.132 0 0 0 .483-.037 1.517 1.517 0 0 0 1.241-1.16 2.479 2.479 0 0 0 .057-.515c.007-.648 0-1.3 0-1.943v-.312a1.585 1.585 0 0 0-1.532-1.578c-.115-.008-.232 0-.347 0Z" data-name="Path 2356"/>
    <path d="M156.654 50.613a.687.687 0 0 0 .15.054 2.245 2.245 0 0 0 .277.011h5.9a.616.616 0 0 0 .435-.075 1.075 1.075 0 0 0 .038-.445v-9.193a2.63 2.63 0 0 1 .01-.381.645.645 0 0 1 .941-.5.583.583 0 0 1 .336.492c.008.1.008.208.008.312v10.477a.631.631 0 0 1-.6.6c-.081.006-.162 0-.243 0h-7.772a1.783 1.783 0 0 1-.277-.01.622.622 0 0 1-.534-.557c0-.1-.008-.208-.008-.312v-10.2c0-.1 0-.21.008-.312a.625.625 0 0 1 .525-.566.644.644 0 0 1 .685.363 1.006 1.006 0 0 1 .073.3 3.1 3.1 0 0 1 .005.347v9.124a1.117 1.117 0 0 0 .043.471Z" data-name="Path 2357"/>
    <path d="M139.092 50.62a1.149 1.149 0 0 0 .187.052 2.517 2.517 0 0 0 .277.007h5.831a.943.943 0 0 0 .46-.058 1.28 1.28 0 0 0 .039-.189c.007-.115 0-.231 0-.347V40.96a2.6 2.6 0 0 1 .01-.381.643.643 0 0 1 1-.451.575.575 0 0 1 .275.459c.008.127.009.254.009.382V51.03c0 .116 0 .232-.008.347a.627.627 0 0 1-.607.6c-.08.007-.162 0-.243 0h-7.738c-.093 0-.185 0-.277-.006a.627.627 0 0 1-.562-.567 6.352 6.352 0 0 1-.009-.312v-10.2a3.025 3.025 0 0 1 .009-.312.624.624 0 0 1 .53-.561.646.646 0 0 1 .666.339 1.089 1.089 0 0 1 .086.331 2.78 2.78 0 0 1 .005.346v9.124a1 1 0 0 0 .06.461Z" data-name="Path 2358"/>
    <path d="M121.522 50.615a.7.7 0 0 0 .15.053 2.27 2.27 0 0 0 .277.011h5.9a.619.619 0 0 0 .435-.075 1.032 1.032 0 0 0 .039-.444v-9.193a2.932 2.932 0 0 1 .008-.381.644.644 0 0 1 1.026-.44.573.573 0 0 1 .25.436c.007.115.008.231.008.347v10.13c0 .1 0 .208-.005.312a.628.628 0 0 1-.6.6c-.08.007-.162 0-.243 0h-7.772a2.253 2.253 0 0 1-.243-.005.621.621 0 0 1-.566-.562 2.565 2.565 0 0 1-.013-.312v-10.2c0-.1.006-.208.01-.312a.62.62 0 0 1 .56-.571.638.638 0 0 1 .664.4 1.125 1.125 0 0 1 .06.3c.01.115 0 .231 0 .347v9.089a1.092 1.092 0 0 0 .043.458Z" data-name="Path 2359"/>
    <path d="m129.014 28.458.125-2.5c0-.092.008-.185.013-.277.03-.543.045-1.086.09-1.627.035-.414.1-.825.16-1.237l.251-1.89.237-1.752.18-1.374c.078-.584.159-1.168.237-1.751l.18-1.374.165-1.236.18-1.374c.056-.424.116-.846.169-1.271a.947.947 0 0 0-.621-1.01.927.927 0 0 0-1.174.579 2.184 2.184 0 0 0-.07.3l-.3 1.847a6.368 6.368 0 0 1-.064.34.626.626 0 0 1-.706.534l-.058-.011a.616.616 0 0 1-.47-.734c.083-.559.175-1.118.265-1.677.033-.206.071-.41.105-.615a2.069 2.069 0 0 1 1.573-1.792 2.142 2.142 0 0 1 2.681 1.41c.011.036.022.072.03.109a2.236 2.236 0 0 1 .06.652c-.016.357-.06.714-.1 1.069-.082.653-.173 1.305-.261 1.958-.083.618-.17 1.236-.252 1.854s-.154 1.215-.234 1.822c-.1.778-.21 1.556-.316 2.335-.08.6-.155 1.191-.233 1.787-.083.631-.174 1.258-.25 1.889-.06.493-.116.987-.146 1.483-.044.715-.063 1.432-.09 2.148-.026.647-.047 1.294-.076 1.941a1.062 1.062 0 0 1-.056.3.624.624 0 0 1-.683.415.6.6 0 0 1-.536-.587c-.015-.215-.005-.436-.005-.683Z" data-name="Path 2362"/>
    <path d="M160.03 21.269c.3 0 .6-.012.9 0a6.62 6.62 0 0 1 2.489.557 3.8 3.8 0 0 1 1.537 1.209 3.3 3.3 0 0 1 .609 1.637c.056.552.123 1.1.184 1.652l.16 1.482c.039.356.076.712.118 1.068a.861.861 0 0 1-.03.443.648.648 0 0 1-.621.418.631.631 0 0 1-.594-.5 3.55 3.55 0 0 1-.063-.412c-.056-.528-.105-1.058-.162-1.586s-.12-1.079-.18-1.619c-.03-.276-.063-.551-.087-.827a1.971 1.971 0 0 0-.83-1.461 3.549 3.549 0 0 0-1.216-.576 6.053 6.053 0 0 0-1.645-.221c-.475 0-.949-.008-1.423.006a5.417 5.417 0 0 0-1.988.432 2.677 2.677 0 0 0-.953.679 1.8 1.8 0 0 0-.461.955c-.051.366-.09.733-.129 1.1-.067.631-.131 1.264-.2 1.9-.052.506-.1 1.012-.153 1.518a.636.636 0 0 1-.3.518.646.646 0 0 1-.972-.474.922.922 0 0 1 0-.208c.052-.506.109-1.011.162-1.516l.177-1.689c.049-.46.077-.923.154-1.378a3.2 3.2 0 0 1 1.206-2.005 4.622 4.622 0 0 1 1.631-.823 7.032 7.032 0 0 1 1.949-.287h.729Z" data-name="Path 2363"/>
    <path d="M148.552 29.023a.65.65 0 0 1-.9.661.6.6 0 0 1-.375-.5 58.411 58.411 0 0 1-.137-1.172q-.1-.9-.194-1.792c-.051-.471-.109-.941-.15-1.412a1.983 1.983 0 0 0-.824-1.464 3.524 3.524 0 0 0-1.215-.578 6.045 6.045 0 0 0-1.644-.222c-.474 0-.949-.008-1.423.006a5.442 5.442 0 0 0-1.989.429 2.672 2.672 0 0 0-.931.651 1.82 1.82 0 0 0-.5 1.046c-.046.413-.09.827-.135 1.24l-.18 1.689c-.054.517-.107 1.034-.163 1.551a.615.615 0 0 1-.355.519.643.643 0 0 1-.918-.532.877.877 0 0 1 0-.173c.057-.517.117-1.033.171-1.55.06-.563.11-1.127.168-1.69.048-.46.075-.924.159-1.377a3.228 3.228 0 0 1 1.224-1.995 4.828 4.828 0 0 1 1.871-.874 6.976 6.976 0 0 1 1.646-.215c.544 0 1.088-.014 1.631 0a6.676 6.676 0 0 1 2.494.539 4.068 4.068 0 0 1 1.105.708 3.231 3.231 0 0 1 1.075 2.15c.053.552.123 1.1.184 1.652.053.482.1.965.157 1.447q.062.569.126 1.137c.016.051.02.097.022.121Z" data-name="Path 2364"/>
    <path d="M143.475 3.964c.123.132.214.236.311.332q1 1.007 2.011 2.013a2.166 2.166 0 0 1 .235.254.605.605 0 0 1 .128.488.64.64 0 0 1-1.027.391 2.324 2.324 0 0 1-.227-.214l-2.038-2.035a.934.934 0 0 0-.327-.264.839.839 0 0 0-.318.254q-1.021 1.016-2.038 2.035a2.5 2.5 0 0 1-.226.214.639.639 0 0 1-1.035-.366.611.611 0 0 1 .137-.518 2.451 2.451 0 0 1 .237-.253l2.011-2.013a.894.894 0 0 0 .261-.324.846.846 0 0 0-.257-.321q-1.016-1.021-2.035-2.038a2.12 2.12 0 0 1-.234-.255.633.633 0 0 1 .338-1 .535.535 0 0 1 .372.017 1.168 1.168 0 0 1 .386.288l2.062 2.06c.1.1.2.188.287.268.175-.006.246-.124.334-.21.436-.431.868-.865 1.3-1.3.278-.278.555-.557.835-.833a1.574 1.574 0 0 1 .236-.2.626.626 0 0 1 .9.809 1.293 1.293 0 0 1-.235.3q-.806.814-1.618 1.621c-.18.18-.361.358-.539.541-.068.069-.127.149-.227.259Z" data-name="Path 2367"/>
    <path d="M160.066 4.917a.9.9 0 0 0-.365.277q-1.021 1.016-2.037 2.034a1.959 1.959 0 0 1-.255.234.631.631 0 0 1-.851-.921 2.182 2.182 0 0 1 .214-.227l2.035-2.036a.84.84 0 0 0 .256-.321.914.914 0 0 0-.262-.324q-1.04-1.045-2.084-2.085a1.028 1.028 0 0 1-.29-.424.584.584 0 0 1 .18-.628.556.556 0 0 1 .67-.112 1.574 1.574 0 0 1 .353.273c.691.683 1.375 1.372 2.063 2.058.1.1.2.187.287.267.175-.008.247-.125.334-.212q1.033-1.027 2.061-2.059a2.431 2.431 0 0 1 .281-.257.575.575 0 0 1 .521-.113.647.647 0 0 1 .451.8.658.658 0 0 1-.1.21 2.115 2.115 0 0 1-.235.254l-2.035 2.037a.845.845 0 0 0-.258.323.888.888 0 0 0 .259.322q1 1.007 2.01 2.013c.066.065.131.131.194.2a.672.672 0 0 1 .144.679.5.5 0 0 1-.378.371.676.676 0 0 1-.677-.155c-.066-.065-.132-.129-.2-.2q-.991-.994-1.986-1.988c-.092-.102-.197-.191-.3-.29Z" data-name="Path 2368"/>
    <path d="M125.379 20.201a3.344 3.344 0 0 1-3.372-3.315v-.047a3.359 3.359 0 1 1 3.372 3.362Zm-2.1-3.335a2.055 2.055 0 0 0 2.037 2.073h.036a2.05 2.05 0 0 0 2.1-2v-.083a2.073 2.073 0 0 0-2.052-2.094h-.038a2.1 2.1 0 0 0-2.083 2.1Z" data-name="Path 2369"/>
    <path d="M142.526 13.689a3.3 3.3 0 0 1 3.373 3.223v.135a3.335 3.335 0 0 1-3.321 3.349h-.04a3.346 3.346 0 0 1-3.356-3.335v-.056a3.3 3.3 0 0 1 3.28-3.316Zm.026 5.43a2.075 2.075 0 0 0 2.077-2.073v-.044a2.06 2.06 0 0 0-2.062-2.058h-.041a2.061 2.061 0 0 0-2.077 2.043v.038a2.075 2.075 0 0 0 2.058 2.093h.046Z" data-name="Path 2370"/>
    <path d="M160.011 20.392a3.326 3.326 0 0 1-3.344-3.307v-.057a3.344 3.344 0 0 1 3.337-3.352h.054a3.359 3.359 0 1 1 .047 6.717Zm.01-1.274a2.1 2.1 0 0 0 2.1-2.09 2.08 2.08 0 0 0-2.076-2.084h-.03a2.057 2.057 0 0 0-2.079 2.035v.038a2.088 2.088 0 0 0 2.075 2.1h.009Z" data-name="Path 2371"/>
    <path d="M124.575 21.268c.116 0 .232-.006.347 0a.634.634 0 0 1 .07 1.258 2.015 2.015 0 0 1-.346.014 5.769 5.769 0 0 0-1.9.35 3.316 3.316 0 0 0-.793.421 2.061 2.061 0 0 0-.877 1.546c-.085.85-.176 1.7-.263 2.549-.055.541-.1 1.082-.16 1.62a1.172 1.172 0 0 1-.076.334.621.621 0 0 1-.68.365.61.61 0 0 1-.524-.6 2.324 2.324 0 0 1 .011-.346c.058-.551.123-1.1.18-1.652s.106-1.1.164-1.654c.037-.356.072-.712.128-1.065a3.218 3.218 0 0 1 1.377-2.161 5.03 5.03 0 0 1 2-.831 6.462 6.462 0 0 1 1.342-.148Z" data-name="Path 2373"/>
    <path d="M156.98 28.733c.046-.551.092-1.08.133-1.609.035-.449.06-.9.1-1.347a1.9 1.9 0 0 1 .073-.441.625.625 0 0 1 1.206.165 6.839 6.839 0 0 1-.024.727c-.033.461-.078.92-.112 1.382-.032.426-.054.853-.086 1.279a2.367 2.367 0 0 1-.058.376.615.615 0 0 1-.641.473.6.6 0 0 1-.587-.574c-.009-.152-.004-.302-.004-.431Z" data-name="Path 2374"/>
    <path d="M123.836 25.705c-.026.391-.049.784-.078 1.176q-.06.795-.124 1.59c-.019.23-.038.461-.066.691a.627.627 0 0 1-.626.579.653.653 0 0 1-.644-.607 1.3 1.3 0 0 1 0-.208l.06-.795c.037-.437.078-.875.113-1.312.03-.38.057-.76.085-1.142 0-.057 0-.116.011-.173a.637.637 0 0 1 1.271.062v.139Z" data-name="Path 2375"/>
    <path d="M139.489 28.762c.044-.536.09-1.053.13-1.571.035-.46.063-.921.1-1.382a2.33 2.33 0 0 1 .066-.443.623.623 0 0 1 1.214.137 7.3 7.3 0 0 1-.024.761c-.03.437-.077.874-.11 1.311s-.055.875-.088 1.313a2.307 2.307 0 0 1-.06.376.616.616 0 0 1-.642.471.6.6 0 0 1-.586-.576c-.003-.138 0-.273 0-.397Z" data-name="Path 2376"/>
    <path d="M163.081 28.748c0 .167.008.283 0 .4a.606.606 0 0 1-.533.548.62.62 0 0 1-.682-.41 1.5 1.5 0 0 1-.066-.339c-.056-.666-.1-1.332-.159-2-.032-.391-.075-.781-.113-1.17a.879.879 0 0 1 .051-.475.623.623 0 0 1 .68-.36.613.613 0 0 1 .527.52c.028.182.049.366.064.549.055.666.1 1.332.16 2 .021.263.05.525.071.737Z" data-name="Path 2377"/>
    <path d="M145.59 28.816c0 .09.008.206 0 .321a.608.608 0 0 1-.527.557.617.617 0 0 1-.7-.44 1.636 1.636 0 0 1-.057-.307c-.03-.357-.055-.714-.085-1.071-.036-.426-.076-.851-.113-1.277-.03-.334-.068-.667-.083-1a.637.637 0 0 1 1.2-.318.587.587 0 0 1 .06.2c.03.252.051.506.074.759.038.414.076.828.112 1.243.046.432.085.869.119 1.333Z" data-name="Path 2378"/>
  </g>
  <g fill="#ef5388">
    <path d="M32.921 9.699a1.463 1.463 0 0 1-.044-.2c-.006-.1 0-.208 0-.312V5.371c.009-1.652.026-3.307.042-4.96 0-.369.032-.4.393-.4h4.823c.277.012.313.045.318.33v.937c0 .175-.055.218-.234.227h-3.028c-.421 0-.433.013-.434.424v1.839c.013.238.046.278.295.28.821.005 1.642 0 2.464 0h.312c.141.009.2.052.2.188q.011.555 0 1.11c0 .116-.057.162-.177.171-.092.007-.185.006-.277.006h-2.325c-.137 0-.275.008-.421.013a.842.842 0 0 0-.062.21v2.253a.363.363 0 0 0 .025.094.344.344 0 0 0 .293.088h2.88c.138 0 .275.01.421.016a1.032 1.032 0 0 1 .067.206 4.909 4.909 0 0 1-.051 1.249.7.7 0 0 1-.364.044h-4.719c-.118.014-.244.008-.397.003Z" data-name="Path 2360"/>
    <path d="M8.986 5.546a.567.567 0 0 0-.09.375v1.873c0 .374.026.4.392.4h2.88a.781.781 0 0 1 .4.048 4.939 4.939 0 0 1 0 1.427.766.766 0 0 1-.365.038H7.45a.823.823 0 0 1-.391-.047 1.559 1.559 0 0 1-.032-.193c-.006-.115 0-.231 0-.346L7.041.483c0-.474 0-.475.485-.476h4.614c.471 0 .472 0 .472.488v.8c0 .159-.05.2-.213.21-.092.006-.185 0-.278 0h-2.88c-.31.008-.353.039-.355.334 0 .636 0 1.272.008 1.908a1.251 1.251 0 0 0 .05.246.876.876 0 0 0 .437.056h2.394c.424 0 .424 0 .426.418V5.3c0 .18-.047.218-.23.226H9.363c-.126.007-.252.015-.377.02Z" data-name="Path 2361"/>
    <path d="M28.723 9.678a10.367 10.367 0 0 1-1.8-.011 1.24 1.24 0 0 1-.038-.188c-.007-.115 0-.231 0-.346l.011-7.075c0-.127 0-.254-.013-.381a.162.162 0 0 0-.158-.156c-.1-.01-.208-.013-.312-.013H24.57c-.216-.01-.256-.047-.262-.274-.007-.243 0-.486 0-.728a3.077 3.077 0 0 1 .013-.311.158.158 0 0 1 .158-.154 2.248 2.248 0 0 1 .242-.009h6.244c.383 0 .387.007.391.387v.728c0 .351-.013.361-.378.361H29c-.188.011-.238.06-.257.254a1.922 1.922 0 0 0-.006.208l.019 3.434.025 3.918a.591.591 0 0 1-.058.356Z" data-name="Path 2365"/>
    <path d="M16.38 8.155a.885.885 0 0 0 .458.066h2.323a.589.589 0 0 1 .364.051 5.091 5.091 0 0 1 0 1.39.681.681 0 0 1-.363.044h-4.304c-.113 0-.226-.011-.351-.017a2.163 2.163 0 0 1-.041-.218c-.007-.081 0-.162 0-.243q0-4.386.01-8.773c0-.427 0-.427.417-.429h1.006a2.329 2.329 0 0 1 .242.008.166.166 0 0 1 .164.15 1.886 1.886 0 0 1 .016.24c.014 1.352.03 2.7.039 4.056.007 1.087 0 2.173.006 3.259-.002.143.014.279.014.416Z" data-name="Path 2366"/>
    <path d="M22.721 9.676a9.732 9.732 0 0 1-1.773-.014 1.4 1.4 0 0 1-.038-.187c-.007-.092 0-.185 0-.277l.014-8.732c0-.436 0-.437.443-.438h1.144c.2 0 .236.047.248.251v.173l.019 8.767a.941.941 0 0 1-.057.457Z" data-name="Path 2372"/>
  </g>
  <g fill="#ef5388">
    <path d="M44.442 64c-.319 0-.732-.016-.948-.038a6.421 6.421 0 0 1-5.672-5.04 6.612 6.612 0 1 1 12.821-3.241c.017.066.033.132.048.2a6.61 6.61 0 0 1-4.946 7.932q-.095.022-.19.041a6.806 6.806 0 0 1-1.113.146Z" data-name="Path 2347"/>
    <path d="M40.567 47.308c-.235-.165-2.93-2.857-3.121-3.12.035-.074.069-.158.114-.237a17.655 17.655 0 0 0 1.917-5.074 18.075 18.075 0 0 0 .335-2.4 16.358 16.358 0 0 0 .047-1.664A17.784 17.784 0 0 0 25.185 17.73a13.649 13.649 0 0 0-2.2-.236c-.266 0-.531-.042-.8-.04A17.787 17.787 0 0 0 4.413 33.72a16.665 16.665 0 0 0-.036 2.531 17.611 17.611 0 0 0 2.986 8.866 17.253 17.253 0 0 0 1.937 2.4.6.6 0 0 0 .28.218c.12-.03.2-.138.285-.226q.874-.868 1.745-1.74l3.951-3.95c.1-.1.188-.2.27-.287a.652.652 0 0 0-.229-.33 8.773 8.773 0 0 1-1.931-3.375 8.65 8.65 0 0 1-.379-3.048 8.812 8.812 0 0 1 4.4-7.178 8.364 8.364 0 0 1 3.092-1.079 8.782 8.782 0 0 1 10.115 9.183 8.635 8.635 0 0 1-1.352 4.247 7.43 7.43 0 0 1-1.056 1.328q-1.516 1.5-3.018 3.018a.784.784 0 0 0-.261.331 1.261 1.261 0 0 0 .1.133c.078.085.162.166.243.247l8.368 8.368a1.19 1.19 0 0 1 .268.305 20.633 20.633 0 0 1-5.6 2.69 22.023 22.023 0 0 1-11.717.34 21.667 21.667 0 0 1-10.046-5.5 22.1 22.1 0 0 1-.689-31.251q.154-.16.31-.318a22.129 22.129 0 0 1 31.3-.016q.2.2.4.41a22.1 22.1 0 0 1 4.123 24.273 15.071 15.071 0 0 1-1.705 2.998Z" data-name="Path 2349"/>
    <path d="M65.777 48.451a.79.79 0 0 0-.373.173 20.337 20.337 0 0 1-3.315 1.659 14.114 14.114 0 0 1-3.285.836 17 17 0 0 1-3.082.108 10.483 10.483 0 0 1-3.086-.6 6.955 6.955 0 0 1-4.012-3.674 10.289 10.289 0 0 1-.847-2.92 16 16 0 0 1-.148-2.421l.01-15.964c0-.162.005-.324 0-.486a1.322 1.322 0 0 1 1.166-1.224c.1-.01.208-.008.312-.008h7.706a1.983 1.983 0 0 1 .415.02 1.4 1.4 0 0 1 .947.7.894.894 0 0 1 .12.43c0 .185.01.37.01.555l.014 13.743a8.866 8.866 0 0 0 .107 1.555 3.424 3.424 0 0 0 .283.926 1.543 1.543 0 0 0 1.64.911 7.392 7.392 0 0 0 1.822-.414c.141-.051.274-.12.412-.18.479-.2.959-.4 1.438-.608.128-.054.252-.117.378-.174a.273.273 0 0 0 .167-.277v-.416l.006-14.992v-.521a1.329 1.329 0 0 1 1.215-1.252c.115-.008.231-.005.347-.005h7.81a1.3 1.3 0 0 1 1.274 1.254v.416q0 11.713.008 23.426c0 .15 0 .3-.005.451a1.3 1.3 0 0 1-1.245 1.213h-6.109a1.678 1.678 0 0 1-.891-.237 1.132 1.132 0 0 1-.457-.506c-.2-.419-.406-.831-.612-1.245-.034-.081-.085-.158-.14-.252Z" data-name="Path 2350"/>
    <path d="M104.149 41.555a1.084 1.084 0 0 0 .185.054c.115.006.231.005.347.005h7.809a1.366 1.366 0 0 1 1.285 1.3v6.491a1.332 1.332 0 0 1-1.266 1.276H90.713a1.3 1.3 0 0 1-1.28-1.251v-5.726a.421.421 0 0 1 .122-.313c.156-.171.3-.348.457-.522l4.8-5.483 3.475-3.969c.081-.092.188-.171.2-.293-.039-.085-.1-.081-.156-.083-.115-.005-.231 0-.347 0h-6.317a2.4 2.4 0 0 1-.55-.048 1.269 1.269 0 0 1-.985-1.008 2.452 2.452 0 0 1-.054-.585c0-1.029.019-2.059.025-3.088.005-.914 0-1.828 0-2.742 0-.15.007-.3.011-.451a1.245 1.245 0 0 1 1.156-1.136c.127 0 .254-.006.382-.006h20.061c.127 0 .254.006.382.008a1.256 1.256 0 0 1 1.1.914 2.542 2.542 0 0 1 .069.549c.006 1.886 0 3.771.008 5.656a.647.647 0 0 1-.178.467q-1.489 1.647-2.969 3.3l-4.662 5.188c-.356.4-.713.79-1.068 1.186-.075.087-.14.178-.246.31Z" data-name="Path 2351"/>
    <path d="M77.488 36.962V24.918c0-.162 0-.324.006-.486a1.385 1.385 0 0 1 .34-.854.894.894 0 0 1 .691-.346h6.492a2.884 2.884 0 0 1 1.673.585 2.1 2.1 0 0 1 .256.233.758.758 0 0 1 .242.59c-.008.3 0 .6 0 .9l.01 23.425c0 .185 0 .37-.01.555a1.373 1.373 0 0 1-.361.845.89.89 0 0 1-.7.328h-7.395a1.179 1.179 0 0 1-1.241-1.112v-.019c-.018-.184-.015-.37-.015-.555V36.956Z" data-name="Path 2352"/>
    <path d="M87.255 16.953a4.878 4.878 0 0 1-4.843 4.912h-.072a4.921 4.921 0 0 1-4.93-4.909v-.032a4.919 4.919 0 0 1 4.923-4.914 4.878 4.878 0 0 1 4.919 4.837.75.75 0 0 1 .003.106Z" data-name="Path 2353"/>
  </g>
</svg>
